/* XPM */
static char * bulb_on_xpm[] = {
"16 21 99 2",
"  	c None",
". 	c #7C7E7C",
"+ 	c #64625C",
"@ 	c #54524C",
"# 	c #7C7A7C",
"$ 	c #94928C",
"% 	c #545244",
"& 	c #4C4E54",
"* 	c #8C8A4C",
"= 	c #9C9A34",
"- 	c #848674",
"; 	c #3C3A3C",
"> 	c #94968C",
", 	c #A4A29C",
"' 	c #545654",
") 	c #54522C",
"! 	c #F4F26C",
"~ 	c #FCFE74",
"{ 	c #FCFE64",
"] 	c #FCFE8C",
"^ 	c #FCFEB4",
"/ 	c #545624",
"( 	c #4C4E64",
"_ 	c #ECEE94",
": 	c #FCFE6C",
"< 	c #FCFE4C",
"[ 	c #FCFE34",
"} 	c #FCFE94",
"| 	c #ECEE8C",
"1 	c #44462C",
"2 	c #84827C",
"3 	c #6C6A6C",
"4 	c #84865C",
"5 	c #FCFA9C",
"6 	c #FCFE5C",
"7 	c #F4F24C",
"8 	c #FCFE7C",
"9 	c #FCFE3C",
"0 	c #FCFEFC",
"a 	c #747674",
"b 	c #6C7274",
"c 	c #84823C",
"d 	c #FCFACC",
"e 	c #FCFE2C",
"f 	c #FCFEBC",
"g 	c #FCFAEC",
"h 	c #4C4E1C",
"i 	c #7C7A74",
"j 	c #84867C",
"k 	c #3C3A24",
"l 	c #BCBE94",
"m 	c #F4F67C",
"n 	c #FCFE44",
"o 	c #BCBA84",
"p 	c #8C8E8C",
"q 	c #A4A6A4",
"r 	c #444A4C",
"s 	c #343624",
"t 	c #ECF2D4",
"u 	c #F4F2B4",
"v 	c #343204",
"w 	c #5C5E5C",
"x 	c #A4AAA4",
"y 	c #747A84",
"z 	c #141214",
"A 	c #848664",
"B 	c #FCFE9C",
"C 	c #848624",
"D 	c #24261C",
"E 	c #848684",
"F 	c #3C3E44",
"G 	c #2C2E44",
"H 	c #F4F6BC",
"I 	c #343634",
"J 	c #B4B6AC",
"K 	c #343604",
"L 	c #FCFEDC",
"M 	c #3C3E04",
"N 	c #646664",
"O 	c #BCBAB4",
"P 	c #6C6E6C",
"Q 	c #646204",
"R 	c #8C8E84",
"S 	c #9C9E94",
"T 	c #7C7E74",
"U 	c #545604",
"V 	c #9C9A94",
"W 	c #2C2A14",
"X 	c #343654",
"Y 	c #545264",
"Z 	c #5C5A64",
"` 	c #848A84",
" .	c #444644",
"..	c #8C8E94",
"+.	c #44423C",
"@.	c #949694",
"#.	c #ACAEAC",
"$.	c #9C9A9C",
"%.	c #74726C",
"                                ",
"                                ",
"            . + @ + #           ",
"        $ % & * = - ; @ >       ",
"      , ' ) ! ~ { ] ^ / ' ,     ",
"      . ( _ { : < [ } | 1 2     ",
"      3 4 5 6 7 8 9 { 0 1 a     ",
"      b c d 9 ~ : e f g h i     ",
"      j k l m < n } 0 o k p     ",
"      q r s t n 6 0 u v w x     ",
"        y z A : B 0 C D E       ",
"        , F G 7 f H I % q       ",
"        J w K 6 L g M N O       ",
"          P Q R S T U i         ",
"          V W X Y Z W `         ",
"             .% ..> +.@.        ",
"            +  .V y + #.        ",
"            $.%.; 2 $           ",
"                                ",
"                                ",
"                                "};
