/* XPM */
static char * connected_ssl_xpm[] = {
"16 16 51 1",
" 	c None",
".	c #000000",
"+	c #DFE1EC",
"@	c #F9C490",
"#	c #F68C25",
"$	c #F58F22",
"%	c #EB7E08",
"&	c #BBC0CE",
"*	c #F9C48C",
"=	c #F58812",
"-	c #DA7407",
";	c #D87307",
">	c #F9C286",
",	c #EF8008",
"'	c #CA6C06",
")	c #C26807",
"!	c #8E4C05",
"~	c #F9BC80",
"{	c #DF7208",
"]	c #B95E06",
"^	c #AF5A06",
"/	c #F9B97A",
"(	c #D06A07",
"_	c #A75606",
":	c #9A4F05",
"<	c #F8B975",
"[	c #BF6106",
"}	c #944F05",
"|	c #854704",
"1	c #F8B66F",
"2	c #864805",
"3	c #7D4304",
"4	c #6D3804",
"5	c #DBDB4F",
"6	c #FFFFFF",
"7	c #FFFFCC",
"8	c #DADA00",
"9	c #6B3704",
"0	c #603303",
"a	c #572E02",
"b	c #666600",
"c	c #FFFF00",
"d	c #FFFF33",
"e	c #FFFF99",
"f	c #F4F404",
"g	c #969600",
"h	c #F4F400",
"i	c #D5D500",
"j	c #D7D70B",
"k	c #2D2D00",
"l	c #DBDB0F",
"              ..",
"          ....+.",
"         .@@#.+.",
"        .@$%%.&.",
"        .*=-;.&.",
".........>,').&.",
"!!!!!!!!.~{]^.+.",
"........./(_:.+.",
"        .<[}|.&.",
" ....   .1234.&.",
".5678.   .90a.&.",
".6.bc.........+.",
".7.bddddddc. .+.",
".ebbc...fgh.  ..",
".8cci. .jkl.    ",
" ....  .....    "};
