/* XPM */
static char * connected_xpm[] = {
"16 16 36 1",
" 	c None",
".	c #000000",
"+	c #EDE9DF",
"@	c #91D4FA",
"#	c #26ABF7",
"$	c #CFC7BC",
"%	c #23A9F6",
"&	c #0899ED",
"*	c #8DD2FA",
"=	c #13A3F6",
"-	c #088EDB",
";	c #078DDA",
">	c #87D0FA",
",	c #089CF1",
"'	c #0784CC",
")	c #077FC4",
"!	c #055B8F",
"~	c #81CEFA",
"{	c #0892E1",
"]	c #0679BB",
"^	c #0673B1",
"/	c #7BCCFA",
"(	c #0788D2",
"_	c #066EA9",
":	c #05659C",
"<	c #76C9F9",
"[	c #077DC0",
"}	c #056196",
"|	c #045787",
"1	c #70C7F9",
"2	c #055888",
"3	c #04527F",
"4	c #04486F",
"5	c #04476D",
"6	c #033F62",
"7	c #033958",
"                ",
"              ..",
"             .+.",
"          ....+.",
"         .@@#.$.",
"        .@%&&.$.",
"        .*=-;.$.",
".........>,').+.",
"!!!!!!!!.~{]^.+.",
"........./(_:.$.",
"        .<[}|.$.",
"        .1234.$.",
"         .567.+.",
"          ....+.",
"              ..",
"                "};
