/* XPM */
static char * glade_file_xpm[] = {
"16 16 78 1",
" 	c None",
".	c #000000",
"+	c #F7F9FE",
"@	c #BADEFF",
"#	c #C7C7C7",
"$	c #E9E9E9",
"%	c #EAEAEA",
"&	c #F2F2F2",
"*	c #AAD8FF",
"=	c #D0E8FF",
"-	c #72ABDB",
";	c #A3A3A3",
">	c #BABABA",
",	c #C0C0C0",
"'	c #E0E0E0",
")	c #3F6B94",
"!	c #C0E1FF",
"~	c #020202",
"{	c #FFFFFF",
"]	c #FAFAFA",
"^	c #69A2D2",
"/	c #39698E",
"(	c #F69696",
"_	c #E26669",
":	c #D7D7D7",
"<	c #D6D6D6",
"[	c #679DCA",
"}	c #34658B",
"|	c #C23E4A",
"1	c #FDFDFD",
"2	c #F5F5F5",
"3	c #ECECEC",
"4	c #D2525E",
"5	c #9E222E",
"6	c #D4D4D4",
"7	c #C5C5C5",
"8	c #F3F3F3",
"9	c #EFEFEF",
"0	c #BDCFE6",
"a	c #B4CCE3",
"b	c #8DB9DA",
"c	c #92161C",
"d	c #649CCB",
"e	c #649DC9",
"f	c #649AC7",
"g	c #9DB1CA",
"h	c #CECECE",
"i	c #9C9E9F",
"j	c #1C4B6F",
"k	c #97A9BA",
"l	c #06375D",
"m	c #214D72",
"n	c #B9B9B9",
"o	c #043455",
"p	c #426F99",
"q	c #8AA7BF",
"r	c #CDCDCD",
"s	c #1D476A",
"t	c #44739B",
"u	c #BFBFBF",
"v	c #03314E",
"w	c #92ACBD",
"x	c #E6E6E6",
"y	c #103A61",
"z	c #487EA3",
"A	c #C2C2C2",
"B	c #B2B2B2",
"C	c #013454",
"D	c #96ACBB",
"E	c #A1A1A1",
"F	c #909090",
"G	c #868686",
"H	c #6E6E6E",
"I	c #7A7A7A",
"J	c #21395B",
"K	c #2F5370",
"L	c #788899",
"M	c #0B3A58",
" .............. ",
".+@#$$$$$$%$&**.",
".=-;>>>>>>>,'-).",
".!~~{{{{{{{{]^/.",
".~(_~::::::<&[}.",
".~_|~{{{1233&[}.",
".~45~::67777&[}.",
".~45~{8333339[}.",
".~45~0aaaaaab[}.",
".~|c~d[[[[ef[[}.",
".!~~g77h3:ijk[}.",
".!-^77lm<7nopq}.",
".!~~7rst77uvtw}.",
".~_c~xyz7ABCtD}.",
" .~~E,FFGHIJKLM.",
"  ............. "};
