/* XPM */
static char * glade_send_file_xpm[] = {
"24 24 101 2",
"  	c None",
". 	c #000000",
"+ 	c #F6F9FF",
"@ 	c #ABD5FF",
"# 	c #DEA69C",
"$ 	c #E1B3AB",
"% 	c #E0B2AB",
"& 	c #E0B2AA",
"* 	c #DDACA3",
"= 	c #DAA299",
"- 	c #DBA59C",
"; 	c #D6958A",
"> 	c #99CCFF",
", 	c #C5E1FF",
"' 	c #6699CC",
") 	c #CC8376",
"! 	c #C97362",
"~ 	c #C97261",
"{ 	c #C97061",
"] 	c #C97364",
"^ 	c #C87060",
"/ 	c #CC7464",
"( 	c #CC7F73",
"_ 	c #406080",
": 	c #B4D9FF",
"< 	c #FFFFFF",
"[ 	c #416283",
"} 	c #F7F7F7",
"| 	c #6090C0",
"1 	c #3D5C7B",
"2 	c #CCCCCC",
"3 	c #CACACA",
"4 	c #BDBDBD",
"5 	c #E7E7E7",
"6 	c #5C8AB8",
"7 	c #3A5876",
"8 	c #F9F9F9",
"9 	c #EBEBEB",
"0 	c #FCFCFC",
"a 	c #F2F2F2",
"b 	c #C8C8C8",
"c 	c #C0C0C0",
"d 	c #B8B8B8",
"e 	c #EFEFEF",
"f 	c #EBF1F8",
"g 	c #F5F5F5",
"h 	c #BBCAD7",
"i 	c #6496C8",
"j 	c #5C8BB9",
"k 	c #5B89B7",
"l 	c #5A87B5",
"m 	c #6598CB",
"n 	c #8EA4BC",
"o 	c #C2C2C2",
"p 	c #DFDFDF",
"q 	c #72787D",
"r 	c #2E465F",
"s 	c #436587",
"t 	c #263A4F",
"u 	c #304961",
"v 	c #CBCBCB",
"w 	c #AAAAAA",
"x 	c #25394C",
"y 	c #4A7095",
"z 	c #426385",
"A 	c #6294C5",
"B 	c #C1C1C1",
"C 	c #2E455D",
"D 	c #436688",
"E 	c #B3B3B3",
"F 	c #233648",
"G 	c #486D91",
"H 	c #020204",
"I 	c #293E54",
"J 	c #466A8E",
"K 	c #B4B4B4",
"L 	c #9F9F9F",
"M 	c #233649",
"N 	c #496E93",
"O 	c #3A5977",
"P 	c #42AE2E",
"Q 	c #7ED66A",
"R 	c #8EDE7E",
"S 	c #8ADA7A",
"T 	c #3C5B7A",
"U 	c #919191",
"V 	c #B2B2B2",
"W 	c #808080",
"X 	c #7D7D7D",
"Y 	c #777777",
"Z 	c #626262",
"` 	c #575757",
" .	c #192735",
"..	c #344E69",
"+.	c #36516D",
"@.	c #263A4E",
"#.	c #368A26",
"$.	c #5ACA42",
"%.	c #225A1A",
"&.	c #2E721E",
"*.	c #26621A",
"              . . . . . . . . . . . . . . . .   ",
"            . + @ # $ % & & & & & * = - ; > > . ",
"            . , ' ) ! ~ { { { { { ] ^ / ( ' _ . ",
"            . : ' < < < < < < < < < < < < ' [ . ",
"            . : ' < < < < < < < < < < < } | 1 . ",
"            . : ' < 2 2 2 2 2 2 2 2 3 4 5 6 7 . ",
"            . : ' < < < < < < < < 8 9 5 5 6 7 . ",
"            . : ' < < < < < < 0 a 5 5 5 5 6 7 . ",
"            . : ' < 2 2 2 b c d d d d d 5 6 7 . ",
"            . : ' < < < e 5 5 5 5 5 5 5 5 6 7 . ",
"            . : ' f < g 5 5 5 5 5 5 5 5 h 6 7 . ",
"            . : ' ' i j 6 6 6 6 6 k l 6 6 6 7 . ",
"            . : ' m n d d o p 5 2 q r s 6 6 7 . ",
"            . : ' | d d t u 5 v d w x y z 6 7 . ",
"            . : A 6 d B C D B d d E F G D 6 7 . ",
"    H H H H H H H 6 c p I J d d K L M N D 6 O . ",
"      H P Q R S H T U V W W X Y Z `  .u ..+.@.. ",
"        H #.$.$.H . . . . . . . . . . . . . .   ",
"      H Q $.%.#.H                               ",
"    H Q $.&.H *.H                               ",
"  H Q $.&.H   H H                               ",
"    H &.H       H                               ",
"      H                                         ",
"                                                "};
