/* XPM */
static char * glade_receive_file_xpm[] = {
"24 24 101 2",
"  	c None",
". 	c #000000",
"+ 	c #F6F9FF",
"@ 	c #ABD5FF",
"# 	c #DEA69C",
"$ 	c #E1B3AB",
"% 	c #E0B2AB",
"& 	c #E0B2AA",
"* 	c #DDACA3",
"= 	c #DAA299",
"- 	c #DBA59C",
"; 	c #D6958A",
"> 	c #99CCFF",
", 	c #C5E1FF",
"' 	c #6699CC",
") 	c #CC8376",
"! 	c #C97362",
"~ 	c #C97261",
"{ 	c #C97061",
"] 	c #C97364",
"^ 	c #C87060",
"/ 	c #CC7464",
"( 	c #CC7F73",
"_ 	c #406080",
": 	c #B4D9FF",
"< 	c #FFFFFF",
"[ 	c #416283",
"} 	c #F7F7F7",
"| 	c #6090C0",
"1 	c #3D5C7B",
"2 	c #CCCCCC",
"3 	c #CACACA",
"4 	c #BDBDBD",
"5 	c #E7E7E7",
"6 	c #5C8AB8",
"7 	c #3A5876",
"8 	c #F9F9F9",
"9 	c #EBEBEB",
"0 	c #FCFCFC",
"a 	c #F2F2F2",
"b 	c #C8C8C8",
"c 	c #C0C0C0",
"d 	c #B8B8B8",
"e 	c #EFEFEF",
"f 	c #EBF1F8",
"g 	c #F5F5F5",
"h 	c #BBCAD7",
"i 	c #020202",
"j 	c #6496C8",
"k 	c #5C8BB9",
"l 	c #5B89B7",
"m 	c #5A87B5",
"n 	c #F69696",
"o 	c #E26669",
"p 	c #6598CB",
"q 	c #8EA4BC",
"r 	c #C2C2C2",
"s 	c #DFDFDF",
"t 	c #72787D",
"u 	c #2E465F",
"v 	c #436587",
"w 	c #C23E4A",
"x 	c #263A4F",
"y 	c #304961",
"z 	c #CBCBCB",
"A 	c #AAAAAA",
"B 	c #25394C",
"C 	c #4A7095",
"D 	c #426385",
"E 	c #D2525E",
"F 	c #9E222E",
"G 	c #6294C5",
"H 	c #C1C1C1",
"I 	c #2E455D",
"J 	c #436688",
"K 	c #B3B3B3",
"L 	c #233648",
"M 	c #486D91",
"N 	c #556B81",
"O 	c #5E8EBD",
"P 	c #293E54",
"Q 	c #466A8E",
"R 	c #B4B4B4",
"S 	c #9F9F9F",
"T 	c #233649",
"U 	c #496E93",
"V 	c #3A5977",
"W 	c #4A5B6C",
"X 	c #3C5B7A",
"Y 	c #919191",
"Z 	c #B2B2B2",
"` 	c #808080",
" .	c #7D7D7D",
"..	c #777777",
"+.	c #626262",
"@.	c #575757",
"#.	c #192735",
"$.	c #344E69",
"%.	c #36516D",
"&.	c #263A4E",
"*.	c #92161C",
"              . . . . . . . . . . . . . . . .   ",
"            . + @ # $ % & & & & & * = - ; > > . ",
"            . , ' ) ! ~ { { { { { ] ^ / ( ' _ . ",
"            . : ' < < < < < < < < < < < < ' [ . ",
"            . : ' < < < < < < < < < < < } | 1 . ",
"            . : ' < 2 2 2 2 2 2 2 2 3 4 5 6 7 . ",
"            . : ' < < < < < < < < 8 9 5 5 6 7 . ",
"            . : ' < < < < < < 0 a 5 5 5 5 6 7 . ",
"            . : ' < 2 2 2 b c d d d d d 5 6 7 . ",
"            . : ' < < < e 5 5 5 5 5 5 5 5 6 7 . ",
"            . : ' f < g 5 5 5 5 5 5 5 5 h 6 7 . ",
"    i i     . : ' ' j k 6 6 6 6 6 l m 6 6 6 7 . ",
"  i n o i   . : ' p q d d r s 5 2 t u v 6 6 7 . ",
"  i o w i   . : ' | d d x y 5 z d A B C D 6 7 . ",
"  i E F i   . : G 6 d H I J H d d K L M J 6 7 . ",
"  i E F i   . N O 6 c s P Q d d R S T U J 6 V . ",
"  i E F i     . W X Y Z ` `  ...+.@.#.y $.%.&.. ",
"  i w *.i       . . . . . . . . . . . . . . .   ",
"    i i                                         ",
"                                                ",
"    i i                                         ",
"  i o *.i                                       ",
"    i i                                         ",
"                                                "};
