/* XPM */
static char * glade_remove_group_menu_xpm[] = {
"16 16 16 1",
" 	c None",
".	c #020204",
"+	c #826E54",
"@	c #9A8A76",
"#	c #AD9E89",
"$	c #BAAE98",
"%	c #E0D9CF",
"&	c #D2CAC0",
"*	c #C6BEB0",
"=	c #EDE9DF",
"-	c #75C2EE",
";	c #53A6D9",
">	c #3E92CC",
",	c #297EB7",
"'	c #055B8F",
")	c #1A72A4",
"                ",
" ....           ",
".++@#.          ",
".+##$.......    ",
".....%&&**$#.   ",
".==%%&&**$$#.   ",
".=%%&&*$$$##.   ",
".%%&&**$$##@.   ",
".%&&*$$$##@@.   ",
".&&**$$........ ",
"..*$$$.----;>,'.",
" ......;;>,))''.",
"       ........ ",
"                ",
"                ",
"                "};
