/* XPM */
static char * glade_send_file_menu_xpm[] = {
"16 16 75 1",
" 	c None",
".	c #000000",
"+	c #F7F9FE",
"@	c #BADEFF",
"#	c #C7C7C7",
"$	c #E9E9E9",
"%	c #EAEAEA",
"&	c #F2F2F2",
"*	c #AAD8FF",
"=	c #D0E8FF",
"-	c #72ABDB",
";	c #A3A3A3",
">	c #BABABA",
",	c #C0C0C0",
"'	c #E0E0E0",
")	c #3F6B94",
"!	c #C0E1FF",
"~	c #D7D7D7",
"{	c #FFFFFF",
"]	c #FAFAFA",
"^	c #69A2D2",
"/	c #39698E",
"(	c #D6D6D6",
"_	c #679DCA",
":	c #34658B",
"<	c #FDFDFD",
"[	c #F5F5F5",
"}	c #ECECEC",
"|	c #D4D4D4",
"1	c #C5C5C5",
"2	c #020204",
"3	c #EFEFEF",
"4	c #42AE2E",
"5	c #7ED66A",
"6	c #8EDE7E",
"7	c #8ADA7A",
"8	c #B4CCE3",
"9	c #8DB9DA",
"0	c #368A26",
"a	c #5ACA42",
"b	c #649DC9",
"c	c #649AC7",
"d	c #225A1A",
"e	c #9C9E9F",
"f	c #1C4B6F",
"g	c #97A9BA",
"h	c #2E721E",
"i	c #26621A",
"j	c #B9B9B9",
"k	c #043455",
"l	c #426F99",
"m	c #8AA7BF",
"n	c #1D476A",
"o	c #BFBFBF",
"p	c #03314E",
"q	c #44739B",
"r	c #92ACBD",
"s	c #5E7A91",
"t	c #E6E6E6",
"u	c #103A61",
"v	c #487EA3",
"w	c #C2C2C2",
"x	c #B2B2B2",
"y	c #013454",
"z	c #96ACBB",
"A	c #4F657A",
"B	c #A1A1A1",
"C	c #909090",
"D	c #868686",
"E	c #6E6E6E",
"F	c #7A7A7A",
"G	c #21395B",
"H	c #2F5370",
"I	c #788899",
"J	c #0B3A58",
" .............. ",
".+@#$$$$$$%$&**.",
".=-;>>>>>>>,'-).",
".!-~{{{{{{{{]^/.",
".!-~~~~~~~~(&_:.",
".!-~{{{{<[}}&_:.",
".!-~~~~|1111&_:.",
".!2222222}}}3_:.",
".!-2456728889_:.",
".!--20aa2_bc__:.",
".!-25ad02~efg_:.",
".!25ah2i21jklm:.",
".25ah2n221opqr:.",
".s2h2tuv2wxyqz:.",
" .A2B,CCDEFGHIJ.",
"  ............. "};
