/* XPM */
static char * gnome_gabber_xpm[] = {
"16 16 38 1",
" 	c None",
".	c #815E16",
"+	c #8F6B20",
"@	c #69490A",
"#	c #422E07",
"$	c #9E8236",
"%	c #9E7D31",
"&	c #906C21",
"*	c #8B681E",
"=	c #9E883D",
"-	c #9E8539",
";	c #9A772B",
">	c #87641A",
",	c #825F17",
"'	c #684809",
")	c #9E9E7D",
"!	c #755817",
"~	c #755614",
"{	c #947025",
"]	c #7D5B14",
"^	c #785711",
"/	c #755D24",
"(	c #9E893F",
"_	c #725110",
":	c #7F5C15",
"<	c #74530F",
"[	c #6F4F0E",
"}	c #977428",
"|	c #6F4E0D",
"1	c #775511",
"2	c #916D22",
"3	c #755513",
"4	c #6C4C0B",
"5	c #735210",
"6	c #6A4A0B",
"7	c #68490A",
"8	c #717171",
"9	c #454545",
"     .+ .+      ",
"     @# @#      ",
"  .+            ",
"  @#  ####      ",
"     #$%&*#     ",
".+  #$=-;>,#    ",
"'# #$=)!~{]^#   ",
"   #%-/(%_:<#   ",
"   #&;~%&[}|#   ",
"    #12_[}(#    ",
"     #,3!(#     ",
"     #^456#     ",
"      #67#      ",
"      ####      ",
"      #89#      ",
"       ##       "};
