/* XPM */
static char * invisible_xpm[] = {
"16 16 46 1",
" 	c None",
".	c #000000",
"+	c #FFD769",
"@	c #FFD161",
"#	c #5E5E5E",
"$	c #585858",
"%	c #FFDF74",
"&	c #FFDB6E",
"*	c #6F6F6F",
"=	c #525252",
"-	c #4E4E4E",
";	c #FFFFD1",
">	c #FFE47B",
",	c #787878",
"'	c #646464",
")	c #474747",
"!	c #424242",
"~	c #FFE177",
"{	c #777777",
"]	c #5F5F5F",
"^	c #494949",
"/	c #3F3F3F",
"(	c #EAB946",
"_	c #F9C857",
":	c #FFD465",
"<	c #4F4F4F",
"[	c #696969",
"}	c #3B3B3B",
"|	c #E4B441",
"1	c #C89929",
"2	c #ECBB48",
"3	c #EBBA47",
"4	c #838383",
"5	c #373737",
"6	c #D7A735",
"7	c #C69727",
"8	c #FFCF5F",
"9	c #888888",
"0	c #CA9B2A",
"a	c #C59626",
"b	c #B7891D",
"c	c #818181",
"d	c #CCCCCC",
"e	c #606060",
"f	c #515151",
"g	c #C0C0C0",
"                ",
"      ....      ",
"     .+@#$.     ",
"    .+%&*=-.    ",
"   .+%;>,')!.   ",
"   .@&;~{]^/.   ",
"   .(_:@]<[}.   ",
"   .|123<[45.   ",
"    .678945.    ",
"     .0a'5.     ",
"      .b5.      ",
"     ......     ",
"     .cdce.     ",
"     ..f/..     ",
"      .gc.      ",
"       ..       "};
