/* XPM */
static char * xmms_stopped_xpm[] = {
"14 18 11 1",
" 	c None",
".	c #000000",
"+	c #B0B0B0",
"@	c #A2A2A2",
"#	c #939393",
"$	c #848484",
"%	c #757575",
"&	c #676767",
"*	c #585858",
"=	c #494949",
"-	c #3A3A3A",
"              ",
"              ",
"              ",
"              ",
"              ",
"              ",
"..............",
".++++@#$%&*=-.",
".....#$%&.....",
"    .$%&*.    ",
"    .%&*=.    ",
"    ......    ",
"              ",
"              ",
"              ",
"              ",
"              ",
"              "};
