/* XPM */
static char * xmms_xpm[] = {
"14 18 35 1",
" 	c None",
".	c #000000",
"+	c #B1B1B1",
"@	c #A0A0A0",
"#	c #9A9A9A",
"$	c #8E8E8E",
"%	c #8C8C8C",
"&	c #838383",
"*	c #7C7C7C",
"=	c #767676",
"-	c #6C6C6C",
";	c #5F5F5F",
">	c #484848",
",	c #3B3B3B",
"'	c #6A6A6A",
")	c #585858",
"!	c #474747",
"~	c #353535",
"{	c #717171",
"]	c #555555",
"^	c #959595",
"/	c #797979",
"(	c #5C5C5C",
"_	c #404040",
":	c #9C9C9C",
"<	c #808080",
"[	c #636363",
"}	c #2A2A2A",
"|	c #A3A3A3",
"1	c #878787",
"2	c #4E4E4E",
"3	c #313131",
"4	c #AAAAAA",
"5	c #383838",
"6	c #1C1C1C",
"       ...    ",
"      .+@#.   ",
"      .+$%&.  ",
"      .+*.=-. ",
"      .@. .;. ",
"      .$.  .>.",
"      .*.  .,.",
"      .'.  .. ",
"      .). ..  ",
"      .!.     ",
"      .~.     ",
"   ...{].     ",
"  .+^/(_.     ",
" .+:<[!}.     ",
".+|1'23.      ",
".4${]56.      ",
".^/(_..       ",
" ....         "};
