/* XPM */
static char * xmms_paused_xpm[] = {
"14 18 46 1",
" 	c None",
".	c #000000",
"+	c #C8C8C8",
"@	c #CFCFCF",
"#	c #C1C1C1",
"$	c #CCCCCC",
"%	c #C0C0C0",
"&	c #C2C2C2",
"*	c #CDCDCD",
"=	c #ADADAD",
"-	c #B9B9B9",
";	c #C6C6C6",
">	c #C5C5C5",
",	c #BEBEBE",
"'	c #B1B1B1",
")	c #AEAEAE",
"!	c #CBCBCB",
"~	c #BCBCBC",
"{	c #ACACAC",
"]	c #B5B5B5",
"^	c #C7C7C7",
"/	c #B8B8B8",
"(	c #A8A8A8",
"_	c #B7B7B7",
":	c #BABABA",
"<	c #AAAAAA",
"[	c #B4B4B4",
"}	c #A6A6A6",
"|	c #9F9F9F",
"1	c #8D8D8D",
"2	c #828282",
"3	c #A9A9A9",
"4	c #A0A0A0",
"5	c #888888",
"6	c #6F6F6F",
"7	c #797979",
"8	c #878787",
"9	c #ABABAB",
"0	c #969696",
"a	c #767676",
"b	c #6D6D6D",
"c	c #787878",
"d	c #676767",
"e	c #A2A2A2",
"f	c #838383",
"g	c #737373",
"      ..      ",
"     .+@.     ",
"      .#$.    ",
"      .%&*.   ",
"     .*#=-;.  ",
"   ..>,')=.   ",
"  .!!~{-].    ",
"   .^/(_.     ",
"    .:'<.     ",
"     .[=.     ",
"      .}|.    ",
"     ...12.   ",
"    .345678.  ",
"   .902abbcd. ",
"   .ef.....g. ",
"    .51.   .  ",
"     .7.      ",
"      ..      "};
